<?xml version="1.0" encoding="UTF-8"?>
<svg width="120px" height="120px" viewBox="0 0 521 794" version="1.1" xmlns="http://www.w3.org/2000/svg" xmlns:xlink="http://www.w3.org/1999/xlink">
    <!-- Generator: Sketch 49.3 (51167) - http://www.bohemiancoding.com/sketch -->
    <title>coder dojo logo</title>
    <desc>Created with Sketch.</desc>
    <defs></defs>
    <g id="coder-dojo-logo" stroke="none" stroke-width="1" fill="none" fill-rule="evenodd">
        <g id="CoderDojo-Roundel-(light-bg)" transform="translate(18.000000, 286.000000)">
            <circle id="circle13" fill="#FEFEFE" cx="241.99782" cy="242.998363" r="238.292973"></circle>
            <path d="M242.998363,0 C377.204281,0 485.996727,108.792445 485.996727,242.998363 C485.996727,377.204281 377.204281,485.996727 242.998363,485.996727 C108.792445,485.996727 0,377.204281 0,242.998363 C0,108.792445 108.792445,0 242.998363,0 Z M240.543377,12.5704573 C239.406806,12.5704573 238.27024,12.593185 237.133674,12.6159182 C111.474927,14.4344248 10.0703538,116.952836 10.0703538,243.020747 C10.0703538,369.24796 111.702422,471.834745 237.565751,473.425577 C175.327484,471.857113 125.318322,420.847953 125.318322,358.245802 C125.318322,294.643654 176.941229,243.020747 240.543377,243.020747 C304.145526,243.020747 355.768432,191.397841 355.768432,127.795692 C355.768432,64.1935438 304.145526,12.5706374 240.543377,12.5706374 L240.543377,12.5704573 Z" id="path15" fill="#000000"></path>
            <path d="M204.173028,150.459018 L204.173028,64.557411 C204.173028,60.8067375 205.536909,57.5561719 208.287405,54.8284094 C211.015167,52.1006468 214.265733,50.7140324 218.039156,50.7140324 L262.819906,50.7140324 C266.525119,50.7140324 269.730256,52.0779136 272.435269,54.8284094 C275.140299,57.5561719 276.481452,60.8067375 276.481452,64.557411 L276.481452,150.459018 C276.481452,154.277886 275.117571,157.528452 272.435269,160.233519 C269.73024,162.938554 266.456941,164.279702 262.638074,164.279702 L218.039156,164.279702 C214.174822,164.279702 210.878779,162.938554 208.196461,160.233519 C205.514159,157.52849 204.195745,154.277886 204.195745,150.459018 L204.173011,150.459018 L204.173028,150.459018 Z M262.297283,149.935834 L262.297283,65.2617193 L218.539444,65.2617193 L218.539444,149.935834 L262.297283,149.935834 Z" id="path17" fill="#000000"></path>
            <path d="M220.539603,410.142014 L242.589035,410.142014 L242.589035,325.4679 L220.903323,325.4679 C218.902962,325.4679 217.220843,324.763232 215.811496,323.376617 C214.402154,321.990003 213.720213,320.285151 213.720213,318.284796 C213.720213,316.307168 214.424887,314.602316 215.811496,313.215702 C217.19811,311.829087 218.902962,311.124419 220.903323,311.124419 L256.955233,311.124419 L256.955233,410.165113 L271.321431,410.165113 L271.321431,380.273363 C271.321431,378.341196 272.026105,376.659078 273.41272,375.227003 C274.799328,373.794927 276.50418,373.090253 278.481808,373.090253 C280.482169,373.090253 282.187021,373.794927 283.573635,375.181536 C284.960244,376.590884 285.664918,378.273002 285.664918,380.273363 L285.664918,417.348185 C285.664918,419.348546 284.960244,421.053397 283.573635,422.462739 C282.187021,423.849354 280.504902,424.531295 278.481808,424.531295 L220.539767,424.531295 C218.539406,424.531295 216.857287,423.803888 215.470673,422.371812 C214.061331,420.917009 213.37939,419.189424 213.37939,417.189063 C213.37939,415.256902 214.084064,413.597511 215.470673,412.210897 C216.857287,410.847015 218.562139,410.165075 220.539767,410.165075 L220.539767,410.142347 L220.539603,410.142014 Z" id="path19" fill="#FFFFFF"></path>
        </g>
    </g>
</svg>